<svg xmlns="http://www.w3.org/2000/svg" preserveAspectRatio="none" width="236.64" height="57.68" viewBox="0 0 236.64 57.68"><defs><style>.cls-1{fill:#ff646c}.cls-2{fill:#ffcd1f}.cls-3{fill:#56cc8e}.cls-4{fill:#c2ac6d}</style></defs><title>p_logo</title><path d="M131.44 56.48h-1.12l-.16-.27L157.4 7.16l.17-.1h1.14l.17.28-27.28 49.05-.16.09z" id="lt1"/><g id="lt2"><path d="M222.38 27.57h-26.99l-.39-.38v-27l-.18-.19h-.97l-.19.19v27l-.38.38h-27l-.19.18v.98l.19.18h27l.38.39v27l.18.18h.98l.18-.18v-27l.39-.39h26.99l.19-.18v-.97l-.19-.19z"/><path d="M167.52 56.48h-1.13l-.16-.26 9.61-17.3.16-.09h1.14l.16.27-9.62 17.29-.16.09zM221.13 56.48h1.14l.16-.26-9.61-17.3-.16-.09h-1.14l-.16.27 9.62 17.29.15.09z"/></g><g id="txt"><path d="M0 33.51a21.71 21.71 0 0 0 2.56-6.26c1.3.36 1.44.48 1.44.66s-.17.26-.57.36a14.52 14.52 0 0 1-1.14 2.55c.71.18.78.18.78.34a.47.47 0 0 1-.37.35v7.21a.72.72 0 0 1-.79.45.24.24 0 0 1-.3-.23c0-.5.09-1.78.09-6.13v-1.09a14.57 14.57 0 0 1-1.51 1.92zm7.32 1.09a5.4 5.4 0 0 1-4.12 4.65L3.08 39a5.5 5.5 0 0 0 3.24-4.4H4.85l-1.21.06v-.77l1.21.06h1.56c0-.46.06-1 .06-1.5v-.72H4.61l-1.29.09V31l1.24.06h1.92V29H5.21L4 29.06v-.77l1.21.06h4.56c.17-.36.26-.41.39-.41a1 1 0 0 1 .64.34.78.78 0 0 1 .44.55.53.53 0 0 1-.45.39v1.87h.13a8.92 8.92 0 0 1 .58-.84c.86.94.92 1.11.92 1.24a.21.21 0 0 1-.17.25h-1.46c0 2.39.05 3 .05 3.33a.67.67 0 0 1-.76.45.25.25 0 0 1-.28-.26v-.66H7.32zm2.45-.65v-2.22H7.5v.88a11.65 11.65 0 0 1-.06 1.34h2.33zm0-2.87V29H7.7a.3.3 0 0 1-.21.14v2h2.28zM16.64 28.82l-1 .06v-.77l1 .06H18v-1c1.2.12 1.37.19 1.37.34s-.08.21-.44.34v.3h1c.18-.21.34-.39.54-.59a2.12 2.12 0 0 1 .9 1 .22.22 0 0 1-.19.25h-.34a2.87 2.87 0 0 1 1 1 .22.22 0 0 1-.19.25h-.2a4 4 0 0 0 0 .49 2.17 2.17 0 0 1 .26.36c0 .26-.19.48-1.37.48S19 31.21 19 30.85v-.76h-1.24c.36.16.43.23.43.32s-.1.21-.45.23A4.92 4.92 0 0 1 16.32 32H18v-.82c1.16.12 1.33.18 1.33.32s-.06.19-.4.32V32h.72a8 8 0 0 1 .54-.61 2.31 2.31 0 0 1 .9 1 .22.22 0 0 1-.19.25h-2v.74l2.1-.19v.23a35.06 35.06 0 0 1-4.66 1.06c0 .3-.13.4-.27.4s-.26-.15-.55-1.29c.85 0 1.69-.08 2.5-.13v-.76h-.9l-1 .06v-.64a5.39 5.39 0 0 1-.92.43l-.1-.19A5.7 5.7 0 0 0 17 30.1h-.7l-1.15.06v-.77l1.15.06H18v-.63h-1.36zm7.36.65a7.21 7.21 0 0 1-.24 1.67 1.4 1.4 0 0 1 .81 1 .44.44 0 0 1-.38.5h-.05a.62.62 0 0 1-.57-.44.86.86 0 0 0-.13-.2 4.53 4.53 0 0 1-2.3 2.12c1.06.18 1.2.27 1.2.4s-.09.23-.52.32a.94.94 0 0 1-.1.31h2.83a.51.51 0 0 1 .39-.39.92.92 0 0 1 .57.28.87.87 0 0 1 .44.52c0 .14-.1.23-.45.4a8.31 8.31 0 0 1-.59 2 2.22 2.22 0 0 1-2.26 1.36 1.16 1.16 0 0 0-1.17-.9v-.32a11.86 11.86 0 0 0 1.19 0 1.21 1.21 0 0 0 1.33-.66 8.56 8.56 0 0 0 .52-1.72l-3.07.1a5.86 5.86 0 0 1-3.32 2.89 10.92 10.92 0 0 1-2.49.58l-.08-.29a8.64 8.64 0 0 0 2.94-1.24 5.6 5.6 0 0 0 1.82-2h-3l-1.3.09v-.68h4.59a6 6 0 0 0 .3-1 9.29 9.29 0 0 1-1 .35l-.12-.22a4.83 4.83 0 0 0 3-3 4 4 0 0 0-1-.57l.08-.23a6.33 6.33 0 0 1 1 .25 6.65 6.65 0 0 0 .13-1.29h-.22l-1 .1v-.76h1.31v-1.56c1.17.12 1.38.22 1.38.35a.46.46 0 0 1-.4.36v.87h.85c.13-.3.21-.35.32-.35a1 1 0 0 1 .59.3.76.76 0 0 1 .4.44.56.56 0 0 1-.4.37 8 8 0 0 0 .56 3.5.39.39 0 0 0 .26.27.29.29 0 0 0 .23-.22 6.84 6.84 0 0 0 .37-.81l.18.06a6.72 6.72 0 0 0-.25 1.25c0 .27.14.37.14.65a.47.47 0 0 1-.48.46 1.45 1.45 0 0 1-1-.8c-.58-.94-.84-2.22-.84-4.49zm-5.11 0h1.36a8.21 8.21 0 0 1 .53-.65h-1.9v.65zm1.11.65a.23.23 0 0 1-.15.13v.34c0 .18 0 .22.48.22a.65.65 0 0 0 .67-.19 2 2 0 0 0 .21-.49H20zM39.15 28c.19-.41.28-.48.41-.48a1 1 0 0 1 .63.34.9.9 0 0 1 .48.57.61.61 0 0 1-.49.43v4h.36l.71-1c1.23 1 1.28 1.21 1.28 1.36a.22.22 0 0 1-.19.25H40.2v4.37c0 .71-.72 1.14-1.77 1.14-.06-.57-.39-.86-1.39-1.12v-.23a12.53 12.53 0 0 0 1.57.13c.4 0 .49-.1.49-.52v-3.69h-5.24c-.22 2.9-1.3 4.39-3.55 5.39l-.14-.19c1.69-1.23 2.47-2.59 2.67-5.2h-1.28l-1.24.07v-.8l1.26.06h1.32v-2.06c0-1.83 0-2.56-.06-3.16.53.18.86.3 1.08.39h5.24zm-5.21.65v4.22h5.28v-4.21h-5.28zm1.28.79a3.39 3.39 0 0 1 1.82 1 1.48 1.48 0 0 1 .41 1 .59.59 0 0 1-.5.66h-.07a.54.54 0 0 1-.56-.52 3.25 3.25 0 0 0-1.23-2zM47 29.46l-1.19.06v-.77l1.19.07h1.45v-.29a9.88 9.88 0 0 0 0-1.23c1.26.12 1.55.23 1.55.37s-.09.23-.49.37v.78h1.21c.21-.25.39-.46.65-.74 1 .85 1.11 1 1.11 1.14a.22.22 0 0 1-.2.24h-1.7c.57.19.68.3.68.4s-.09.23-.46.28a11.9 11.9 0 0 1-1 1.61h1c.21-.23.43-.48.7-.76 1 .88 1.12 1 1.12 1.16a.22.22 0 0 1-.19.25h-2.82a.35.35 0 0 1-.18.16v1.26h1.15c.21-.25.41-.5.7-.8 1 .88 1.16 1.07 1.16 1.2a.22.22 0 0 1-.2.24h-2.81v.75a4.66 4.66 0 0 1 1.91.68 1.09 1.09 0 0 1 .57.83.5.5 0 0 1-.41.57h-.09a.64.64 0 0 1-.55-.43 3.57 3.57 0 0 0-1.41-1.36v3.3a.7.7 0 0 1-.76.4.23.23 0 0 1-.23-.2c0-.36 0-1 .06-3.34a9.62 9.62 0 0 1-2.83 2.46l-.16-.18a11.85 11.85 0 0 0 2.65-3.48H46.9l-1.19.06v-.77l1.19.07h1.63V32.4h-1.65l-1.19.06v-.76l1.19.06h.68a.45.45 0 0 1-.24-.45 2.76 2.76 0 0 0-.4-1.63l.19-.13a1.92 1.92 0 0 1 1.21 1.59.61.61 0 0 1-.39.62h1.39a19.78 19.78 0 0 0 .54-2.3H47zm6.87 2.87c0 3.67-.94 5.5-3.12 6.81l-.13-.14c1.65-1.46 2.31-3.37 2.31-6.76 0-2.22 0-3.1-.06-4a6.48 6.48 0 0 1 1.14.35 11 11 0 0 0 2.46-1.16c1 .71 1 .85 1 1s-.09.17-.34.17a2 2 0 0 1-.43 0 25.67 25.67 0 0 1-2.7.43l-.15.16v2.57h2c.22-.28.45-.54.74-.85 1 .9 1.19 1.11 1.19 1.25a.22.22 0 0 1-.19.25h-1a.4.4 0 0 1-.18.14v.85c0 3.87.06 5 .06 5.47a.72.72 0 0 1-.79.45.26.26 0 0 1-.36-.32c0-.44.06-1.6.06-5.67v-1h-1.49zM60.32 35.39A19.17 19.17 0 0 0 62.89 30c1.23.43 1.34.52 1.34.67s-.14.28-.54.34a13.26 13.26 0 0 1-.89 1.68c.53.12.65.21.65.32a.48.48 0 0 1-.37.34v1.37c0 2.49.05 3.5.05 4a.74.74 0 0 1-.8.45.24.24 0 0 1-.33-.25c0-.49.08-1.5.08-4.26v-1a13.07 13.07 0 0 1-1.61 1.83zm5.51-6.79a10.56 10.56 0 0 0-.05-1.33c1.3.1 1.57.22 1.57.37s-.09.23-.5.39v.59h3.9a.49.49 0 0 1 .39-.35 1.19 1.19 0 0 1 .67.4.79.79 0 0 1 .45.59c0 .13-.13.26-.66.36-.4.3-.94.67-1.48 1l-.18-.16a10 10 0 0 0 .67-1.21H62v.21a1.27 1.27 0 0 1-1 1.43.49.49 0 0 1-.53-.52.74.74 0 0 1 .35-.62 1.65 1.65 0 0 0 .75-1.5h.23a2.74 2.74 0 0 1 .14.43h3.88zm4.23 4.4a.57.57 0 0 1 .39-.39 1 1 0 0 1 .62.32.79.79 0 0 1 .41.54.68.68 0 0 1-.45.43v.73c0 2.88.06 3.5.06 3.82a.68.68 0 0 1-.77.44.23.23 0 0 1-.27-.24v-.28h-4.22v.17a.67.67 0 0 1-.77.46.23.23 0 0 1-.28-.25c0-.32.06-1.19.06-4.25v-1.87c.32.1.64.22 1 .35h1.38a12.39 12.39 0 0 0 .22-1.38H65.5l-1.24.06v-.77l1.24.06h4.82c.25-.3.41-.53.68-.81 1 .85 1.12 1.08 1.12 1.21a.21.21 0 0 1-.18.24h-3.12a.59.59 0 0 1-.28.16 10.34 10.34 0 0 1-.77 1.25h2.29zm0 .65h-4.2v1.63H70v-1.65zm0 2.31h-4.23v1.77H70v-1.79zM80.8 28.82v-1.56c1.21.1 1.51.22 1.51.36s-.06.23-.44.37v.83h3c.26-.31.48-.58.77-.9 1.07.9 1.28 1.16 1.28 1.3a.22.22 0 0 1-.19.25h-9.57V32c0 3.48-.61 5-1.79 6.52l-.21-.12c.71-1.59 1-3.06 1-6.35v-3.6l1 .37h3.64zm3.52 5.75a.5.5 0 0 1 .36-.35 1.11 1.11 0 0 1 .65.32.76.76 0 0 1 .43.53.62.62 0 0 1-.43.41V36c0 1.61.06 2.26.06 2.59a.71.71 0 0 1-.8.44.23.23 0 0 1-.27-.19v-.54h-5.11v.44a.67.67 0 0 1-.8.46.22.22 0 0 1-.26-.25c0-.34.06-1.14.06-3v-1.76q.48.15 1 .35H81V32c0-1 0-1.64-.05-2.13 1.41.13 1.59.23 1.59.39s-.08.23-.5.39v1.15h2.26a10.3 10.3 0 0 1 .8-.86c1.08.93 1.17 1.12 1.17 1.26a.21.21 0 0 1-.17.25H82v2.16h2.32v-.04zm0 .65h-5l-.06.08v2.36h5.06v-2.44zM6.32 53.51a6.52 6.52 0 0 0 1.6 1.37 14.34 14.34 0 0 0 3-2.22c1 .61 1.08.7 1.08.83s-.1.19-.45.19h-.17a14.59 14.59 0 0 1-3.14 1.41 11.86 11.86 0 0 0 3.82 1.25v.23a1.4 1.4 0 0 0-1 .85 9.08 9.08 0 0 1-3.24-1.6 44.22 44.22 0 0 1-6 1.45c-.09.32-.18.41-.35.41s-.26-.26-.56-1.41L3 56.1v-6.52a17.24 17.24 0 0 1-2.72 1.54l-.13-.21a20.67 20.67 0 0 0 5.59-5.33c1.33.41 1.41.5 1.41.65s-.08.19-.34.25a11.32 11.32 0 0 0 5.65 2.85v.24a1.31 1.31 0 0 0-1 .81 10.43 10.43 0 0 1-5-3.82 15.15 15.15 0 0 1-2.94 2.62l.48.18h1.83v-.16a11.43 11.43 0 0 0-.05-1.2c1.3.13 1.46.22 1.46.35s-.09.23-.45.35v.71h1.76a.37.37 0 0 1 .31-.3 1.11 1.11 0 0 1 .59.32.76.76 0 0 1 .43.46.5.5 0 0 1-.35.36v3.06a.71.71 0 0 1-.79.44.22.22 0 0 1-.25-.18H6.32zm2.23-2.43V50H4.06l-.06.06v1h4.53zm0 1.78v-1.13H4v1.09h4.53zM4 56c1.14-.14 2.29-.29 3.44-.47a6.71 6.71 0 0 1-1.57-2H4v2.45zM20 52c.14-.32.22-.39.34-.39a.92.92 0 0 1 .59.32.87.87 0 0 1 .44.53.54.54 0 0 1-.41.4v3.92a.69.69 0 0 1-.75.44A.24.24 0 0 1 20 57v-.55h-2.56v.7a.63.63 0 0 1-.72.45.24.24 0 0 1-.3-.23V51.73a9.12 9.12 0 0 1 .88.3H20zm-2.54.65v3.1H20v-3.08h-2.51zM24 46.24a.59.59 0 0 1 .34-.42 1.18 1.18 0 0 1 .65.32.81.81 0 0 1 .46.53.64.64 0 0 1-.43.41V50.22a.69.69 0 0 1-.8.46.23.23 0 0 1-.22-.26v-.36h-4.34v.43a.66.66 0 0 1-.77.46.23.23 0 0 1-.28-.24v-4.76c.34.1.66.19 1 .32H24zm0 .65h-4.3v2.48H24v-2.48zM26.22 52a.49.49 0 0 1 .36-.36 1 1 0 0 1 .65.35.93.93 0 0 1 .44.53.58.58 0 0 1-.41.4v.65c0 2.23.06 2.87.06 3.23a.72.72 0 0 1-.81.44.22.22 0 0 1-.24-.24v-.55h-2.74v.37c0 .28-.28.46-.77.46a.21.21 0 0 1-.25-.28c0-.35.06-1 .06-3.69v-1.7c.32.1.66.22 1 .35h2.65zm0 .65H23.6l-.06.08v3.07h2.72v-3.13zM32.55 56.67c3.55-1.58 5.86-3.91 7.51-8.25a.15.15 0 0 0 0-.08.18.18 0 0 0-.19-.16h-1c-1.19.07-2.65.25-4.48.54a5 5 0 0 0-.64.13 1 1 0 0 1-.37.07 1.34 1.34 0 0 1-.75-.52 2.45 2.45 0 0 1-.49-1.06l.25-.12a1.36 1.36 0 0 0 1.3.57h.16a17.54 17.54 0 0 0 2.07-.09c1.06-.06 2.33-.16 3.69-.28a1 1 0 0 0 .71-.21.51.51 0 0 1 .34-.21 1.6 1.6 0 0 1 .62.4 1.19 1.19 0 0 1 .57.74.72.72 0 0 1-.38.4 1.17 1.17 0 0 0-.52.63c-2 4.88-4.87 6.82-8.18 7.85zM46 48.12c1.1.14 1.79.5 1.84.79 2.22-.17 4.3-.29 6.2-.45a1.2 1.2 0 0 0 .58-.22 1.24 1.24 0 0 1 .51-.24 2.29 2.29 0 0 1 .83.4 1 1 0 0 1 .71.77.56.56 0 0 1-.34.37 1 1 0 0 0-.52.65c-.22.7-.63 2.26-1 3.5.7.16 1 .39 1 .67s-.18.33-.49.33-.81-.09-1.34-.12H53c-1.3 0-3 .09-4.63.23a2.83 2.83 0 0 1 0 .37c0 .5-.13.71-.49.71a.67.67 0 0 1-.63-.7 3.88 3.88 0 0 0 0-.68c-.07-1.3-.25-2.94-.49-4.83a1.2 1.2 0 0 0-.83-1.21zm8.6 1.26c0-.17-.11-.22-.31-.22-1.93.08-4.27.25-6.42.45.13 1.47.25 3.07.38 4.51 1.74-.12 3.87-.25 5.48-.37a34.44 34.44 0 0 0 .88-4.37zM60.76 47a2.45 2.45 0 0 0 1.34.36h1.44c1.86-.1 3.4-.18 5.52-.34a2 2 0 0 0 .82-.19.79.79 0 0 1 .36-.15 1.84 1.84 0 0 1 .84.54 1.5 1.5 0 0 1 .67.91c0 .23-.19.3-.52.33a1.33 1.33 0 0 0-.69.23 20.09 20.09 0 0 1-3.4 2c-.66 3.11-1.7 5.34-4.39 6.88l-.22-.25a10.21 10.21 0 0 0 3.45-7v-.48a.46.46 0 0 0-.09-.29 1.7 1.7 0 0 0-.89-.46v-.33a6.93 6.93 0 0 1 .71 0 3 3 0 0 1 .72.15 6.18 6.18 0 0 1 .61.31.49.49 0 0 1 .32.37.22.22 0 0 1 0 .11 1 1 0 0 0-.09.2.33.33 0 0 1-.06.23 18.22 18.22 0 0 0 2.61-2.31.24.24 0 0 0 .09-.13c0-.06 0-.09-.14-.09h-.03c-2.15.09-4.52.32-6.3.53a6.91 6.91 0 0 0-1 .17 1.57 1.57 0 0 1-.44.13 1.51 1.51 0 0 1-.94-.61 2.53 2.53 0 0 1-.46-.66zM80.7 56.15c3.1-1 4.9-2.58 4.9-4.9 0-2-1.69-3.58-4.18-3.59h-.74a2 2 0 0 1 .8 1.16 2.45 2.45 0 0 1-.3.85c-.2.45-.64 1.45-1.16 2.43a14.17 14.17 0 0 1-1.53 2.39 1.51 1.51 0 0 1-1.15.68 1.58 1.58 0 0 1-1.12-.7 3.89 3.89 0 0 1-.71-2.34c0-2.75 2.61-5 6-5 3.18 0 5.3 2 5.3 4.4 0 3.1-2.66 4.53-6 5zm-4.38-4.33a2.89 2.89 0 0 0 .47 1.69.87.87 0 0 0 .6.35 1 1 0 0 0 .74-.5 15.76 15.76 0 0 0 2-3.86 3.05 3.05 0 0 0 .23-1 1.2 1.2 0 0 0-.23-.68 4.43 4.43 0 0 0-3.81 4z"/></g><g id="dot1"><path class="cls-1" d="M110.32 21.82a7.73 7.73 0 1 1 7.73-7.73 7.73 7.73 0 0 1-7.73 7.73zm0-14.12a6.39 6.39 0 1 0 6.39 6.39 6.4 6.4 0 0 0-6.39-6.35z"/><circle class="cls-1" cx="110.34" cy="14.12" r="5.05"/></g><g id="dot2"><path class="cls-2" d="M130.79 21.82a7.73 7.73 0 1 1 7.73-7.73 7.74 7.74 0 0 1-7.73 7.73zm0-14.12a6.39 6.39 0 1 0 6.39 6.39 6.4 6.4 0 0 0-6.39-6.35z"/><circle class="cls-2" cx="130.79" cy="14.12" r="5.05"/></g><g id="dot3"><path class="cls-3" d="M208.4 21.82a7.73 7.73 0 1 1 7.73-7.73 7.74 7.74 0 0 1-7.73 7.73zm0-14.12a6.39 6.39 0 1 0 6.39 6.39 6.4 6.4 0 0 0-6.39-6.35z"/><circle class="cls-3" cx="208.4" cy="14.12" r="5.05"/></g><g id="dot3-2"><path class="cls-4" d="M228.91 21.82a7.73 7.73 0 1 1 7.73-7.73 7.74 7.74 0 0 1-7.73 7.73zm0-14.12a6.39 6.39 0 1 0 6.41 6.42 6.39 6.39 0 0 0-6.41-6.42z"/><circle class="cls-4" cx="228.91" cy="14.12" r="5.05"/></g></svg>