<svg xmlns="http://www.w3.org/2000/svg" preserveAspectRatio="none" width="236.6" height="57.7" viewBox="0 0 236.6 57.7"><defs><style>.cls-1{fill:#c2ac6d}</style></defs><title>p_logo_course</title><circle id="dot4" class="cls-1" cx="228.9" cy="14.1" r="7.7"/><circle id="dot3" class="cls-1" cx="208.4" cy="14.1" r="7.7"/><circle id="dot2" class="cls-1" cx="130.7" cy="14.1" r="7.7"/><circle id="dot1" class="cls-1" cx="110.3" cy="14.1" r="7.7"/><path d="M131.4 56.5h-1.1l-.2-.3 27.3-49 .1-.1h1.2l.1.2-27.2 49.1-.2.1z" id="lt1"/><g id="lt2"><path d="M222.3 27.6h-27l-.3-.4V.2l-.2-.2h-1l-.2.2v27l-.4.4h-27l-.2.2v.9l.2.2h27l.4.4v27l.2.2h1l.2-.2v-27l.3-.4h27l.2-.2v-.9l-.2-.2z"/><path d="M167.5 56.5h-1.2l-.1-.3 9.6-17.3.2-.1h1.1l.2.3-9.7 17.3-.1.1zM221.1 56.5h1.1l.2-.3-9.6-17.3-.2-.1h-1.1l-.2.3 9.6 17.3.2.1z"/></g><g id="txt"><path d="M-.1 33.5a22.5 22.5 0 0 0 2.6-6.3c1.3.4 1.5.5 1.5.7s-.2.3-.6.4a14.24 14.24 0 0 1-1.2 2.5c.6.1.7.2.7.3a.45.45 0 0 1-.4.3v7.3a.83.83 0 0 1-.8.5.25.25 0 0 1-.3-.2c0-.5.1-1.8.1-6.1v-1.1c-.5.7-1 1.3-1.5 1.9zm7.3 1.1a5.21 5.21 0 0 1-4.1 4.6L3 39a5.36 5.36 0 0 0 3.2-4.4H4.7l-1.2.1v-.8l1.2.1h1.6c0-.5.1-1 .1-1.5v-.7H4.5l-1.2.1V31l1.2.1h1.9V29H5.1l-1.2.1v-.8l1.2.1h4.6c.2-.4.3-.4.4-.4a.68.68 0 0 1 .6.3.62.62 0 0 1 .4.6.69.69 0 0 1-.5.4v1.9h.1a4.17 4.17 0 0 1 .6-.8c.9.9.9 1.1.9 1.2a.22.22 0 0 1-.2.2h-1.4c0 2.4.1 3 .1 3.3a.71.71 0 0 1-.8.5.27.27 0 0 1-.3-.3v-.7H7.2zm2.5-.7v-2.2H7.4v.9a5.28 5.28 0 0 1-.1 1.3h2.4zm0-2.8V29H7.6c0 .1-.1.1-.2.1V31h2.3v.1zM16.5 28.8l-1 .1v-.8l1 .1h1.4v-1c1.2.1 1.4.2 1.4.3a.45.45 0 0 1-.4.3v.3h1c.2-.2.3-.4.5-.6a2.25 2.25 0 0 1 .9 1 .22.22 0 0 1-.2.2h-.3a3.46 3.46 0 0 1 1 1 .22.22 0 0 1-.2.2h-.1c0 .2-.1.3-.1.5a1.38 1.38 0 0 1 .3.4c0 .3-.2.5-1.4.5s-1.3-.2-1.3-.5V30h-1.3c.4.2.4.2.4.3s-.1.2-.5.2a9.27 9.27 0 0 1-1.4 1.4l.8.1h.9v-.9c1.2.1 1.3.2 1.3.3a.45.45 0 0 1-.4.3v.2h.7c.2-.2.3-.4.5-.6a2.25 2.25 0 0 1 .9 1 .22.22 0 0 1-.2.2h-2v.7c.7-.1 1.4-.1 2.1-.2v.2a45.18 45.18 0 0 1-4.7 1.1.45.45 0 0 1-.3.4c-.2 0-.3-.2-.6-1.3.9 0 1.7-.1 2.5-.1v-.8H17l-1 .1V32a3.55 3.55 0 0 1-.9.4l-.1-.1a4.85 4.85 0 0 0 1.9-2.3h-.7l-1.1.1v-.8l1.1.1h1.6v-.6h-1.3zm7.4.7a9.85 9.85 0 0 1-.2 1.7 1.43 1.43 0 0 1 .8 1 .46.46 0 0 1-.4.5.72.72 0 0 1-.6-.4c0-.1-.1-.1-.1-.2a4.29 4.29 0 0 1-2.3 2.1c1.1.2 1.2.3 1.2.4s-.1.2-.5.3c0 .1-.1.2-.1.3h2.8a.68.68 0 0 1 .4-.4 1.55 1.55 0 0 1 .6.3 1.08 1.08 0 0 1 .4.5.69.69 0 0 1-.5.4 7.62 7.62 0 0 1-.6 2 2.39 2.39 0 0 1-2.3 1.4c-.1-.5-.4-.7-1.2-.9v-.2c.4 0 .8.1 1.2.1a1.12 1.12 0 0 0 1.3-.7 6.87 6.87 0 0 0 .5-1.7l-3.1.1a5.87 5.87 0 0 1-3.3 2.9 10.15 10.15 0 0 1-2.5.6V39a9.35 9.35 0 0 0 2.9-1.2 5.78 5.78 0 0 0 1.8-2l-3 .1-1.3.1v-.8h1.3l3.3-.1c.1-.3.2-.6.3-1l-1 .3-.1-.2a5 5 0 0 0 3-3 8.79 8.79 0 0 0-1-.6l.1-.2c.3.1.7.1 1 .2a4.87 4.87 0 0 0 .1-1.2h-.3l-1 .1v-.8h1.3v-1.6c1.2.1 1.4.2 1.4.3a.68.68 0 0 1-.4.4v.8h.9c.1-.3.2-.3.3-.3a1.1 1.1 0 0 1 .6.3.68.68 0 0 1 .4.4.68.68 0 0 1-.4.4 7.3 7.3 0 0 0 .6 3.5.43.43 0 0 0 .3.3c.1 0 .1 0 .2-.2a5.94 5.94 0 0 0 .4-.8l.2.1a10.5 10.5 0 0 0-.2 1.3c0 .3.1.4.1.6a.47.47 0 0 1-.5.5 1.33 1.33 0 0 1-1-.8c-.6-.9-.8-2.2-.9-4.5zm-5.2-.1h1.4c.2-.2.3-.4.5-.6h-1.9v.6zm1.2.7c0 .1-.1.1-.2.1v.3c0 .2.1.2.5.2s.6 0 .7-.2a2.57 2.57 0 0 0 .2-.5h-1.2v.1zM39 28a.69.69 0 0 1 .4-.5.78.78 0 0 1 .6.3 1 1 0 0 1 .5.6.53.53 0 0 1-.5.4v4h.4c.2-.3.4-.6.7-1 1.2 1 1.3 1.2 1.3 1.4a.22.22 0 0 1-.2.2h-2.1c0 3 .1 4 .1 4.4 0 .7-.7 1.1-1.8 1.1-.1-.6-.4-.9-1.4-1.1v-.2a8.6 8.6 0 0 0 1.6.1c.4 0 .5-.1.5-.5v-3.8h-5.3c-.2 2.9-1.3 4.4-3.5 5.4H30c1.7-1.2 2.5-2.6 2.7-5.2h-1.3l-1.3.1v-.8l1.3.1h1.3v-2.1a22.94 22.94 0 0 0-.1-3.2c.5.2.9.3 1.1.4H39V28zm-5.2.7v4.2H39v-4.2h-5.2zm1.3.7a3.87 3.87 0 0 1 1.8 1 1.43 1.43 0 0 1 .4 1 .61.61 0 0 1-.6.7.63.63 0 0 1-.6-.5 3.74 3.74 0 0 0-1.2-2zM46.9 29.5l-1.2.1v-.8l1.2.1h1.4v-.3a4.48 4.48 0 0 0-.1-1.2c1.3.1 1.5.2 1.5.4a.69.69 0 0 1-.5.4v.8h1.2c.2-.2.4-.5.6-.7a3.61 3.61 0 0 1 1.1 1.1.22.22 0 0 1-.2.2h-1.7c.6.2.7.3.7.4s-.1.2-.5.3a7 7 0 0 1-1 1.6h1c.2-.2.4-.5.7-.8 1 .9 1.1 1 1.1 1.2a.22.22 0 0 1-.2.2h-2.8a.38.38 0 0 1-.2.2V34h1.1c.2-.2.4-.5.7-.8a4.69 4.69 0 0 1 1.2 1.2.22.22 0 0 1-.2.2H49v.7a4.2 4.2 0 0 1 1.9.7.94.94 0 0 1 .6.8.51.51 0 0 1-.5.6.72.72 0 0 1-.6-.4 4.66 4.66 0 0 0-1.4-1.4c0 2.3.1 3 .1 3.3a.78.78 0 0 1-.8.4.25.25 0 0 1-.3-.2c0-.4.1-1 .1-3.3a9.67 9.67 0 0 1-2.8 2.5l-.2-.2a11.43 11.43 0 0 0 2.6-3.5h-1.3l-1.2.1v-.8l1.2.1H48v-1.4h-1.7l-1.2.1v-.8l1.2.1h.7a.46.46 0 0 1-.3-.5 2.54 2.54 0 0 0-.4-1.6l.6-.4a2.36 2.36 0 0 1 1.3 1.7.68.68 0 0 1-.4.6h1.4a15.54 15.54 0 0 0 .5-2.3h-2.8zm6.8 2.8c0 3.7-.9 5.5-3.1 6.8l-.1-.1c1.7-1.5 2.3-3.4 2.3-6.8a37.94 37.94 0 0 0-.1-4 6.2 6.2 0 0 0 1.1.3 14.24 14.24 0 0 0 2.5-1.2c1 .7 1 .9 1 1a.25.25 0 0 1-.3.2.76.76 0 0 1-.4-.1 25.12 25.12 0 0 1-2.7.4l-.2.2v2.6h1.9a7.05 7.05 0 0 0 .7-.9c1 .9 1.2 1.1 1.2 1.3a.22.22 0 0 1-.2.2h-1c0 .1-.1.1-.2.1v.9c0 3.9.1 5 .1 5.5a.71.71 0 0 1-.8.5.27.27 0 0 1-.3-.3c0-.4.1-1.6.1-5.7v-1h-1.5v.1zM60.1 35.4a19.37 19.37 0 0 0 2.6-5.4c1.2.4 1.3.5 1.3.7s-.1.3-.5.3a9.47 9.47 0 0 1-.9 1.7c.5.1.6.2.6.3a.45.45 0 0 1-.4.3v1.4c0 2.5.1 3.5.1 4a.83.83 0 0 1-.8.5.25.25 0 0 1-.3-.2c0-.5.1-1.5.1-4.3v-1a9.34 9.34 0 0 1-1.6 1.8zm5.6-6.8a5.72 5.72 0 0 0-.1-1.4c1.3.1 1.6.2 1.6.4a.69.69 0 0 1-.5.4v.6h3.9a.44.44 0 0 1 .4-.3 1.69 1.69 0 0 1 .7.4.81.81 0 0 1 .5.6c0 .1-.1.3-.7.4a9.74 9.74 0 0 1-1.5 1l-.2-.2c.2-.4.5-.8.7-1.2h-8.6v.2a1.21 1.21 0 0 1-1 1.4.47.47 0 0 1-.5-.5.71.71 0 0 1 .3-.6 1.58 1.58 0 0 0 .7-1.5v-.1h.2a.6.6 0 0 1 .1.4h4zm4.2 4.4a.68.68 0 0 1 .4-.4.78.78 0 0 1 .6.3 1.08 1.08 0 0 1 .4.5.69.69 0 0 1-.5.4v.7c0 2.9.1 3.5.1 3.8s-.4.4-.8.4a.25.25 0 0 1-.3-.2v-.3h-4.2v.2c0 .3-.3.5-.8.5a.25.25 0 0 1-.3-.2c0-.3.1-1.2.1-4.2v-1.9c.3.1.6.2 1 .3h1.5a6.75 6.75 0 0 0 .2-1.4h-1.9l-1.2.1v-.8l1.2.1h4.8a5 5 0 0 1 .7-.8c1 .9 1.1 1.1 1.1 1.2a.22.22 0 0 1-.2.2h-3.1a.77.77 0 0 1-.3.2 8.34 8.34 0 0 1-.8 1.2h2.3v.1zm0 .6h-4.2v1.6h4.2v-1.6zm0 2.3h-4.2v1.8h4.2v-1.8zM80.7 28.8v-1.5c1.2.1 1.5.2 1.5.4a.68.68 0 0 1-.4.4v.8h3c.3-.3.5-.6.8-.9a3.79 3.79 0 0 1 1.3 1.3.22.22 0 0 1-.2.2H77V32c0 3.5-.6 5-1.8 6.5l-.2-.2c.7-1.6 1-3.1 1-6.3v-3.6c.5.2.8.3 1 .4h3.7zm3.5 5.8a.44.44 0 0 1 .4-.3.78.78 0 0 1 .6.3.62.62 0 0 1 .4.5.51.51 0 0 1-.4.4v.5c0 1.6.1 2.3.1 2.6s-.4.4-.8.4a.25.25 0 0 1-.3-.2v-.5h-5.1v.4c0 .3-.3.5-.8.5a.25.25 0 0 1-.3-.2c0-.3.1-1.1.1-3v-1.8c.3.1.6.2 1 .3h1.8V32a11.57 11.57 0 0 0-.1-2.1c1.4.1 1.6.2 1.6.4a.69.69 0 0 1-.5.4v1.1h2.3c.3-.3.5-.6.8-.9 1.1.9 1.2 1.1 1.2 1.3a.16.16 0 0 1-.2.2h-4.1v2.2h2.3zm0 .6h-5.1l-.1.1v2.4h5.1v-2.5h.1zM6.2 53.5a10.7 10.7 0 0 0 1.6 1.4 21 21 0 0 0 3-2.2c1 .6 1.1.7 1.1.8s-.1.2-.5.2h-.2a22.25 22.25 0 0 1-3.1 1.4 12.09 12.09 0 0 0 3.8 1.3v.2a1.3 1.3 0 0 0-1 .9 8.76 8.76 0 0 1-3.2-1.6 47 47 0 0 1-6 1.4.45.45 0 0 1-.3.4c-.2 0-.3-.3-.6-1.4.7-.1 1.4-.1 2.1-.2v-6.5a18.21 18.21 0 0 1-2.7 1.5l-.2-.2a21.69 21.69 0 0 0 5.6-5.3c1.3.4 1.4.4 1.4.6a.25.25 0 0 1-.3.2 11.8 11.8 0 0 0 5.7 2.9v.2a1.37 1.37 0 0 0-1 .8 10.44 10.44 0 0 1-5-3.8 24.43 24.43 0 0 1-2.9 2.7c.2.1.3.1.5.2h1.9v-.2a4.12 4.12 0 0 0-.1-1.2c1.3.1 1.5.2 1.5.3s-.1.2-.5.3v.7h1.8c.1-.3.2-.3.3-.3a2.83 2.83 0 0 1 .6.3 1.08 1.08 0 0 1 .4.5.78.78 0 0 1-.3.4v3.1c0 .3-.4.4-.8.4a.22.22 0 0 1-.2-.2H6.2zm2.2-2.4V50H3.9l-.1.1v1h4.6zm0 1.8v-1.1H3.9v1.1h4.5zM3.9 56c1.2-.1 2.3-.3 3.5-.5a7.83 7.83 0 0 1-1.6-2H3.9V56zM19.9 52a.45.45 0 0 1 .3-.4.78.78 0 0 1 .6.3.62.62 0 0 1 .4.5.68.68 0 0 1-.4.4v.7c0 2.2.1 2.8.1 3.2a.6.6 0 0 1-.7.4.27.27 0 0 1-.3-.3v-.5h-2.6v.7a.68.68 0 0 1-.7.5.25.25 0 0 1-.3-.2c0-.3.1-1.1.1-3.8v-1.8l.9.3h2.6zm-2.5.7l-.1 3.1h2.6v-3.1h-2.5zm6.4-6.5a.69.69 0 0 1 .3-.4 1.55 1.55 0 0 1 .6.3 1 1 0 0 1 .5.5.68.68 0 0 1-.4.4v.7c0 1.5.1 2 .1 2.4a.71.71 0 0 1-.8.5.27.27 0 0 1-.3-.3v-.4h-4.3v.4c0 .3-.3.5-.8.5a.25.25 0 0 1-.3-.2c0-.3.1-1 .1-3v-1.8l1 .3h4.3v.1zm.1.7h-4.3l-.1.1v2.5h4.3v-2.6h.1zm2.2 5.1a.68.68 0 0 1 .4-.4.78.78 0 0 1 .6.3 1.08 1.08 0 0 1 .4.5.68.68 0 0 1-.4.4v.6c0 2.3.1 2.9.1 3.2s-.4.4-.8.4a.16.16 0 0 1-.2-.2v-.5h-2.7v.4c0 .3-.3.5-.8.5a.16.16 0 0 1-.2-.2c0-.3.1-1 .1-3.7v-1.7l1 .3h2.5v.1zm0 .7h-2.7l-.1.1v3.1H26v-3.2h.1zM32.4 56.7a13.34 13.34 0 0 0 7.5-8.2v-.1a.22.22 0 0 0-.2-.2h-1c-1.2.1-2.6.2-4.5.5-.3 0-.4.1-.6.1a2.27 2.27 0 0 1-.4.1 1 1 0 0 1-.7-.5 3.83 3.83 0 0 1-.5-1.1l.3-.1a1.49 1.49 0 0 0 1.3.6h.2a17 17 0 0 0 2.1-.1c1.1-.1 2.3-.2 3.7-.3a.78.78 0 0 0 .7-.3.54.54 0 0 1 .3-.2 1.52 1.52 0 0 1 .6.4 1.15 1.15 0 0 1 .6.7.76.76 0 0 1-.4.4 1 1 0 0 0-.5.6c-2 4.9-4.9 6.8-8.2 7.8zM45.9 48.1c1.1.1 1.8.5 1.8.8 2.2-.2 4.3-.3 6.2-.4a1.42 1.42 0 0 0 .6-.2 1.46 1.46 0 0 1 .5-.3 2.5 2.5 0 0 1 .8.4 1.08 1.08 0 0 1 .7.8.78.78 0 0 1-.3.4.94.94 0 0 0-.5.7c-.2.7-.6 2.3-1 3.5.7.2 1 .4 1 .7s-.2.3-.5.3-.8-.1-1.3-.1h-1c-1.3 0-3 .1-4.6.2v.4c0 .5-.1.7-.5.7a.61.61 0 0 1-.6-.7 2 2 0 0 0-.1-.7c-.1-1.3-.3-2.9-.5-4.8a1.21 1.21 0 0 0-.8-1.2zm8.6 1.3a.27.27 0 0 0-.3-.3c-1.9.1-4.3.2-6.4.4.1 1.5.3 3.1.4 4.5 1.7-.1 3.9-.2 5.5-.4.3-1.3.6-3 .8-4.2zM60.6 47a2 2 0 0 0 1.3.4h1.4c1.9-.1 3.4-.2 5.5-.3a1.09 1.09 0 0 0 .8-.2.52.52 0 0 1 .4-.2 1.46 1.46 0 0 1 .8.5 1.51 1.51 0 0 1 .7.9c0 .2-.2.3-.5.3a2.54 2.54 0 0 0-.7.2 30.11 30.11 0 0 1-3.4 2c-.7 3.1-1.7 5.3-4.4 6.9l-.2-.2a10 10 0 0 0 3.4-7v-.5a.37.37 0 0 0-.1-.3 1.52 1.52 0 0 0-.9-.5v-.3h.7a1.85 1.85 0 0 1 .7.2 1.63 1.63 0 0 1 .6.3.37.37 0 0 1 .3.4v.1a.35.35 0 0 1-.1.2c0 .1 0 .2-.1.2a23.46 23.46 0 0 0 2.6-2.2l.1-.1c0-.1 0-.1-.1-.1h-.1c-2.1.1-4.5.3-6.3.5a4.07 4.07 0 0 0-1 .2.6.6 0 0 1-.4.1 1.51 1.51 0 0 1-.9-.7 4.23 4.23 0 0 1-.5-.7zM80.6 56.1c3.1-1 4.9-2.6 4.9-4.9 0-2-1.7-3.6-4.2-3.6h-.7a2.08 2.08 0 0 1 .8 1.1 2.3 2.3 0 0 1-.3.9 17.37 17.37 0 0 1-1.2 2.4c-.5.9-1.1 1.8-1.5 2.4a1.55 1.55 0 0 1-1.2.7 1.39 1.39 0 0 1-1.1-.7 4.18 4.18 0 0 1-.7-2.3c0-2.8 2.6-5 6-5 3.2 0 5.3 1.9 5.3 4.4 0 3.1-2.7 4.5-6 5zm-4.4-4.3a2.65 2.65 0 0 0 .5 1.7 1.06 1.06 0 0 0 .6.4.91.91 0 0 0 .7-.5 14.31 14.31 0 0 0 2-3.9 3.55 3.55 0 0 0 .2-1 1.85 1.85 0 0 0-.2-.7 4.34 4.34 0 0 0-3.8 4z" transform="translate(.1)"/></g></svg>